<svg xmlns="http://www.w3.org/2000/svg" width="1000" height="600" viewBox="0 0 264.583 158.75" version="1.1" id="svg8"><g id="layer1" transform="translate(-1052.21 531.447)"><g id="g839" transform="matrix(.1 0 0 .1 1066.052 -406.865)" stroke-miterlimit="4" stroke-dasharray="none" stroke-opacity="1"><path id="rect839" opacity="1" fill="#00c" fill-opacity="1" stroke="none" stroke-width="0" stroke-linecap="butt" d="M-138.415-1245.822h2645.833v1587.5H-138.415z"/><g id="g828" fill="none" stroke="#fff" stroke-width="52.917"><circle id="path10" cx="1184.502" cy="-452.072" r="502.708" opacity="1" fill-opacity="1" stroke-linecap="butt"/><path d="M681.794-452.072H1687.21" id="path833" stroke-linecap="butt" stroke-linejoin="miter"/><path d="M1184.502-954.78V50.636" id="path833-7" stroke-linecap="butt" stroke-linejoin="miter"/><path id="path4522-9" d="M1185.642-953.923a628.385 628.385 0 01250.214 501.851A628.385 628.385 0 011185.642 49.78" opacity="1" fill-opacity="1" stroke-linecap="butt"/><path id="path4522-9-4" d="M1183.361 49.779a628.385 628.385 0 01-250.213-501.851 628.385 628.385 0 01250.213-501.85" opacity="1" fill-opacity="1" stroke-linecap="butt"/><path id="path823" d="M1513.941-791.7a658.879 658.879 0 01-658.878 0" opacity="1" fill-opacity="1" stroke-linecap="square" stroke-dashoffset="0"/><path id="path823-7" d="M855.063-112.445a658.879 658.879 0 01658.878 0" opacity="1" fill-opacity="1" stroke-linecap="square" stroke-dashoffset="0"/></g></g></g></svg>